#!OML:ASF E:/inclinewalkrobotboard/Project1/Captureday1/Session1/subject1.ASF
:FULLY-SPECIFIED
:DEGREES
263
root 0 0 0 -2.6282613950041966 -6.06464434723759 -6.299697494461551
lowerback 9.604761893895859 2.663413735579806 4.986028477819944
upperback 1.084107583263703 4.092088168406913 1.0784583084838453
thorax -4.063985111937938 1.9282479042603118 -2.158953283334525
lowerneck -12.887820715940116 -3.455852834832043 -1.9024808256790036
upperneck 14.713360801925422 -4.808345197556853 3.267957268046179
head 6.59119676337805 -2.2025693012920025 0.8865815462096569
rclavicle -2.8543970335930525E-15 -1.9404041239391976E-15
rhumerus -29.96463793019898 -18.300566422205005 -83.24579464463665
rradius 22.382037398660408
rwrist 14.446614751165821
rhand -19.620412893106785 30.777668524804923
rfingers 7.125020000000003
rthumb 6.722335566664942 0.6580142124344164
lclavicle -4.091626898989704E-15 -1.6451069019791773E-15
lhumerus -34.738387174761 7.616864607735875 79.50952550771258
lradius 17.38494099603426
lwrist -0.6447628473198135
lhand -27.48507433003799 27.71750506908122
lfingers 7.125019999999995
lthumb -0.9323129043783114 57.81537257202962
rfemur -13.882217889176598 4.848716701414407 27.050504871148185
rtibia 41.965871537272164
rfoot -7.744891958311138 -6.570852110744933
rtoes 5.172381104552925
lfemur -13.332879426100167 -2.5230097615878213 -19.299370065224462
ltibia 32.986926486877515
lfoot -5.484952423740804 -2.5327642303962707
ltoes -0.9014742340159501
264
root 0 0 0 -3.0134966586898795 -6.004248088893527 -5.779493252976787
lowerback 9.581590774154344 2.447405749547842 4.599891850103839
upperback 1.4158107995200406 3.7624574420812484 1.1363914696766861
thorax -3.689871759542987 1.774108356213181 -1.8202380263686448
lowerneck -13.09003579164899 -3.3462077486409894 -1.9832021420995853
upperneck 16.514910652472057 -4.648319153901595 3.0926302270401655
head 7.185204204934595 -2.116481261606931 0.8319227284185962
rclavicle -2.8756978979930623E-15 -2.03527855479522E-15
rhumerus -30.075175040540888 -18.591595974416272 -83.29624313216742
rradius 22.457064121946615
rwrist 14.800363035973167
rhand -19.760049291290947 30.675086204053322
rfingers 7.125020000000002
rthumb 6.589657473127483 0.5394999091089545
lclavicle -4.1066690432190174E-15 -1.772768682162679E-15
lhumerus -34.64527989480421 7.444285706158873 79.49945171057219
lradius 17.61225350830104
lwrist -0.433860299122792
lhand -27.548871171701105 27.81703555794324
lfingers 7.125019999999997
lthumb -0.9936054838148625 57.91883764715029
rfemur -14.737621978237097 4.684713543284764 26.64160003687087
rtibia 42.46402260300768
rfoot -7.3356686092869765 -6.67408413669793
rtoes 5.1510179046418925
lfemur -11.15717286185273 -3.346596250493621 -19.949059824763623
ltibia 31.581205223993535
lfoot -6.791216138410667 -1.8803767448483044
ltoes -0.7679283879574434
265
root 0 0 0 -3.6450319275514644 -5.748153431036988 -4.695699274558856
lowerback 8.972024990110533 2.005590121989567 3.7002229632353725
upperback 1.7248702970491832 3.06789363046557 1.1866126289554053
thorax -3.0154740293254276 1.4523990078667506 -1.1329308390134165
lowerneck -13.607823192622142 -3.027403995533382 -2.0705444372871824
upperneck 20.581874982313828 -4.262071269427222 2.8083903465945452
head 8.586554326898419 -1.8883345168925265 0.7418792337861095
rclavicle -3.0538169405366973E-15 -2.103103488562161E-15
rhumerus -30.58809253184466 -18.997481830904427 -83.6082784200929
rradius 22.07680944907785
rwrist 15.303905151660718
rhand -19.874921236843825 30.436266696049294
rfingers 7.125020000000001
rthumb 6.482050949480273 0.28584726073852096
lclavicle -4.263860299187871E-15 -1.902207227046472E-15
lhumerus -34.5008234903706 7.204674790321109 79.49371213129687
lradius 17.908557131385674
lwrist -0.15378375371645747
lhand -27.638240832167376 27.952761659132836
lfingers 7.125019999999999
lthumb -1.0798606992643114 58.05938437864116
rfemur -16.057631460696935 4.443170272769265 26.041217158357583
rtibia 43.22321258380572
rfoot -6.73371790008649 -6.843608877302884
rtoes 5.114991302144516
lfemur -7.6273806774129325 -4.492708575444539 -20.889062740489592
ltibia 29.657729879689384
lfoot -8.857708911539032 -0.945023602339409
ltoes -1.0622717848180585
266
root 0 0 0 -4.14418114231375 -4.920777250536501 -2.5798813996074794
lowerback 8.144740324920338 1.1087862449294588 1.851297906940872
upperback 1.8691669663875115 1.6412607560460175 1.1765806968697965
thorax -2.422559046740412 0.7952636615407297 0.11128127877322491
lowerneck -14.463067870652825 -2.42956872524564 -2.2196336862356185
upperneck 23.811180257348127 -3.4216354350158733 2.2901987171333404
head 9.770222737732588 -1.4770191712408456 0.6451112103870473
rclavicle -3.3792241249853333E-15 -2.10110454022937E-15
rhumerus -32.14010136921927 -19.574862964678488 -84.62155586302424
rradius 20.38135759508439
rwrist 15.987421089840996
rhand -19.84958366334144 29.89946480266081
rfingers 7.1250199999999975
rthumb 6.511524685638459 -0.25444622547104245
lclavicle -4.66653923531495E-15 -1.9813670911903002E-15
lhumerus -34.23262942570278 6.917413592113309 79.53440394496523
lradius 18.15515344046756
lwrist 0.11867960835517888
lhand -27.758130680748316 28.128056075096126
lfingers 7.125020000000002
lthumb -1.1970760627294927 58.23900006382112
rfemur -18.22381221568365 4.092834263997535 25.14285264468634
rtibia 44.326308097837796
rfoot -5.891840617006342 -7.167455027854692
rtoes 4.989651935413536
lfemur -2.3760886632538547 -5.960978386851128 -22.160313971763465
ltibia 27.225451578340298
lfoot -11.859248461303928 0.2883901743434829
ltoes -2.133535542501839
267
root 0 0 0 -3.62466486467528 -2.890960770070408 0.06658377393093007
lowerback 8.887091225148502 -0.08130447791939366 -0.8258670321216244
upperback 2.1822638321363215 -0.2932922373153821 0.905958930689752
thorax -2.56037375330849 -0.10340217938906626 1.5597828893446581
lowerneck -14.232356414763954 -1.9907430073040615 -2.269795336728787
upperneck 17.70141566530802 -2.5637246956879114 1.8730613609375124
head 7.675926227226294 -1.199470240630666 0.682818293292917
rclavicle -3.0306735244432253E-15 -1.7984131211000853E-15
rhumerus -34.48515247335102 -20.313105380158945 -86.15421141553412
rradius 17.477030285760215
rwrist 16.594715815628234
rhand -19.61552053028339 29.066283664317282
rfingers 7.125019999999991
rthumb 6.7425613719432365 -1.0625310776578019
lclavicle -4.263917238870298E-15 -1.7348963704504533E-15
lhumerus -33.78964984880132 6.337419764251365 79.5897596200418
lradius 18.784652506443905
lwrist 0.6579692440962868
lhand -27.931144187599912 28.264493048660775
lfingers 7.1250200000000055
lthumb -1.3698350520301013 58.37844066979116
rfemur -21.048850986702384 3.7156198485385907 23.946252138324773
rtibia 45.00560549732775
rfoot -5.1384817922983155 -7.690335278017235
rtoes 4.496153821141874
lfemur 2.6383425376959364 -7.133773993992458 -23.40966604722921
ltibia 25.04780875029629
lfoot -14.652751745823544 1.3159974686455898
ltoes -3.4541892525271436
268
root 0 0 0 -2.7367275420134485 -1.4245752998292747 1.1675785055173447
lowerback 9.252382440867688 -0.6752948463141123 -1.9927282905627448
upperback 2.0752993447659005 -1.2271329535708444 0.8660494225263643
thorax -2.8955167984434063 -0.540406057835445 2.2640868809925347
lowerneck -14.605452043729787 -1.957351326625862 -2.4993928741987834
upperneck 14.923628983563825 -2.327588654532459 1.6181386452180746
head 6.790121716633474 -1.176416099228481 0.6902003129688326
rclavicle -2.0590265909361034E-15 -6.338996302427269E-16
rhumerus -35.61553162541766 -21.906746025010786 -86.50608339182692
rradius 15.531789094301175
rwrist 17.06923936199682
rhand -19.456752621101757 28.29764154668728
rfingers 7.125019999999987
rthumb 6.897303512034348 -1.7991329474913087
lclavicle -2.1149901013844056E-15 -5.631557557403227E-16
lhumerus -33.411203312118765 4.8121455882330135 79.35679680477033
lradius 21.398426421577618
lwrist 2.5406832072069996
lhand -28.221983864892188 28.166721890979282
lfingers 7.125020000000008
lthumb -1.6618812538939594 58.289043922936216
rfemur -23.063082719594163 3.435060900382778 22.5866764661289
rtibia 44.092936007826324
rfoot -4.785339615350187 -8.109999914807748
rtoes 3.612907219247201
lfemur 5.718133258981928 -7.428708817883243 -24.29433297675431
ltibia 24.080946906846734
lfoot -16.017644743899467 1.498935066264067
ltoes -4.24464860361897
269
root 0 0 0 -1.9671931137075211 -0.4521812722214391 1.3872945062492543
lowerback 9.516465323730868 -1.0585456224862053 -2.589422866151115
upperback 1.7368325210568012 -1.7799323913244873 1.08007502765738
thorax -3.3912882610390818 -0.7993605506441037 2.8675202199510066
lowerneck -14.733847333079227 -2.0634063566886196 -2.445321210309226
upperneck 14.417776765152878 -2.3380823762865424 1.1984441442758835
head 6.654691634481656 -1.2401406355787 0.5525100737754606
rclavicle -6.392516050619495E-17 -6.265627365904751E-16
rhumerus -35.452238484704786 -24.30093058778049 -85.60489255321976
rradius 14.89396843821229
rwrist 17.456568293906304
rhand -19.523569283393158 27.570879574586314
rfingers 7.125019999999984
rthumb 6.832782596150224 -2.516188361140223
lclavicle 1.1341102380328288E-15 -3.2515342327044065E-16
lhumerus -32.965808495360875 2.394071574767907 79.10663353553632
lradius 25.72413827644991
lwrist 5.627175691024947
lhand -28.608795700850123 27.84042625628329
lfingers 7.125020000000008
lthumb -2.0477174866615204 57.97398764990991
rfemur -23.552654535970348 3.4004343806100676 21.920764028190444
rtibia 42.63008841039161
rfoot -4.930733926984681 -8.28273928587163
rtoes 2.9694841355121007
lfemur 7.202104226040972 -7.209261737650606 -24.682276008220633
ltibia 24.20162014808716
lfoot -16.314710814745318 1.1648894842277078
ltoes -4.835517733149157
270
root 0 0 0 -1.71652871296869 -0.08594904481219068 1.426460111251219
lowerback 9.49835875678633 -1.2084019395770738 -2.8032506961459047
upperback 1.3044857906908287 -1.987548748464228 1.1376139759532007
thorax -3.8435403371278962 -0.9007447275714626 3.0622641041522063
lowerneck -15.343798678350488 -2.108967445388131 -2.3647732209842416
upperneck 14.190307966827705 -2.3553721299515065 0.8549000104430565
head 6.698259614642199 -1.27066074638135 0.42227290616076363
rclavicle 1.9973910549418062E-15 -1.2169657903183284E-15
rhumerus -34.78910256528842 -26.707659422447144 -84.18838574195125
rradius 15.088037622047977
rwrist 17.330299624362627
rhand -19.715402593953947 26.818830862885825
rfingers 7.125019999999984
rthumb 6.646327100784482 -3.2832536814421616
lclavicle 3.6271571593900165E-15 -7.05886321495972E-16
lhumerus -32.23130296825869 -0.40174936101075354 79.21312131927985
lradius 30.28593484862005
lwrist 8.973831381771479
lhand -29.03533960796817 27.589993996897977
lfingers 7.125020000000006
lthumb -2.469568354662025 57.730247332683206
rfemur -23.38947725836884 3.5887118932653337 22.05127870475034
rtibia 41.38454537050728
rfoot -5.534583794503474 -8.43413505783028
rtoes 2.564355599664336
lfemur 7.864581410274012 -6.926732967005148 -24.784426907951875
ltibia 24.641403852869317
lfoot -16.287760365458404 0.8190345321799635
ltoes -5.352799444661883
